<svg fill="none" version="1.1" viewBox="0 0 142 36" xmlns="http://www.w3.org/2000/svg">
  <path d="m32.671 12.387c-2.4681-9.3876-11.645-14.547-20.496-11.521-8.8513 3.0262-14.027 13.09-11.559 22.477 2.4679 9.3886 8.0724 14.548 16.924 11.521 8.8511-3.0249 17.599-13.088 15.132-22.477zm-13.834 17.184c-1.8115 0-3.884-1.134-4.5823-2.1383 0.7424 0.2182 2.4217 0.4053 3.0982-0.162 0.6775-0.5676 6.0226-10.354 4.0152-13.496-0.475-0.7493-0.4651-0.6916-0.4158-0.4056 0.0443 0.2573 0.1204 0.6995-0.0962 0.905-0.163 0.1542-0.2452 0.2613-0.2731 0.3296-2.2366 2.4906-3.9165 5.6178-5.3943 8.3688-1.9479 3.6261-3.5448 6.5988-5.6028 6.5988-3.3164 0-4.7998-3.1857-4.7998-7.4182 0-7.0693 4.8436-18.502 12.239-18.502 2.16 0 5.188 4.1552 3.6009 7.1128-0.2839-0.8727-1.0911-1.7457-1.0911-1.7457-4.2434 1.9636-6.436 4.7129-7.2218 7.3964-0.7858 2.6839-1.7674 6.4369-1.7236 8.9678 0 2.1319 0.0948 1.7444 0.3408 0.7395 0.1217-0.4975 0.2805-1.1462 0.4831-1.7156 0.3261-0.4866 0.7293-1.1311 1.1959-1.877 2.7375-4.3761 7.6601-12.245 12.031-12.245 2.552 0 3.6034 2.8154 3.6034 4.8311 4e-4 7.1103-4.2576 14.456-9.4071 14.456zm53.419-25.174c2.4222 0 1.1321 2.6916 1.1321 2.6916-2.3018 0-3.095 0.15672-3.095 2.668v2.0163h1.9651c0.6449 0-0.3895 2.71-0.3895 2.71h-1.5756v11.087c0 0.6443-2.7103-0.3901-2.7103-0.3901v-9.4037c0-1.3091-0.891-1.2929-0.891-1.2929v-2.71h0.891v-2.0163c0-4.5062 1.9167-5.3596 4.6732-5.3596zm5.2023 16.024c0 2.5116 0.7936 2.6687 3.0954 2.6687 0 0 1.2901 2.6916-1.1321 2.6916-2.7568 0-4.6732-0.8535-4.6732-5.36v-4.6452c0-1.3091-0.8907-1.2929-0.8907-1.2929v-2.71h0.8907v-2.3201s2.7099-1.0341 2.7099-0.3898v2.7096h1.9657c0.6443 0-0.3901 2.71-0.3901 2.71h-1.5756c-0.8941 0-0.8446 0.0557-0.5984 0.3333 0.2203 0.2485 0.5984 0.6748 0.5984 1.3981v4.2067zm17.593-0.5056c0-5.7913 4.6405-8.1304 8.613-8.1304 3.972 0 4.9 1.2613 4.9 2.116v9.5812c0 0.6446-2.709-0.3901-2.709-0.3901v-7.2049c0-0.1885 0.263-0.2592 0.48-0.3173 0.336-0.0902 0.56-0.1504-0.48-0.5731 0 0-0.869-0.4987-2.498-0.4987-2.9 0-5.5964 1.8723-5.5964 5.4173 0 2.6734 1.9775 3.1767 3.6194 3.1767 0.232 0 0.44-0.0104 0.626-0.0197 0.45-0.0224 0.773-0.0386 1.005 0.1128 0.597 0.3879 0.597 1.2962 0.597 2.1059v0.0259c-0.226 0.1679-0.798 0.4643-2.321 0.4643-1.6702 0-6.236-0.8162-6.236-5.8659zm34.286 3.1743c-2.303 0-3.096-0.1571-3.096-2.6687v-4.2067c0-0.7233-0.378-1.1496-0.598-1.3981-0.247-0.2776-0.296-0.3333 0.598-0.3333h1.576s1.035-2.71 0.39-2.71h-1.966v-2.7096c0-0.64427-2.71 0.3898-2.71 0.3898v2.3201h-0.891v2.71s0.891-0.0162 0.891 1.2929v4.6452c0 4.5065 1.917 5.36 4.673 5.36 2.422 0 1.133-2.6916 1.133-2.6916zm-39.563-11.31c-1.8633 0-3.168 0.4732-4.0739 1.0464l-7e-4 -1e-3 -5e-4 -0.0011-1e-3 -0.0019c-0.0242 0.0177-0.049 0.0354-0.0739 0.0531-0.116 0.0757-0.2253 0.1533-0.328 0.2309-1.1626 0.8022-2.3248 1.3888-3.407 1.3888h-0.3621v2.6764s0.9794-0.0292 0.9794 1.7497v6.2587s2.7099 1.0344 2.7099 0.3901v-7.3856c0-0.7393-0.3522-1.0126-0.5831-1.1918-0.1127-0.0874-0.1964-0.1525-0.1964-0.2382 0-0.0565 8e-3 -0.0623 0.0794-0.1135 0.0913-0.0653 0.2862-0.2049 0.7001-0.6196 1.2122-1.1957 2.7149-1.5259 4.0562-1.5259 1.1368 0 1.6979 1.0254 1.6979 2.3893v8.2952s2.71 1.0344 2.71 0.3901v-9.1309c6e-4 -2.0042-0.1471-4.6592-3.9063-4.6592zm31.442 4.441v2.4188c0 1.7789 0.978 1.7494 0.978 1.7494v2.6771h-0.361c-1.083 0-2.245 0.5862-3.407 1.3888-0.103 0.0776-0.212 0.1551-0.329 0.2315-0.024 0.0174-0.048 0.0351-0.073 0.0527l-1e-3 -0.0025-1e-3 -0.0012c-0.906 0.5726-2.212 1.0459-4.074 1.0459-3.759 0-3.908-2.6547-3.908-4.6598v-9.1301c0-0.6455 2.71 0.3892 2.71 0.3892v8.2952c0 1.3646 0.562 2.4135 1.699 2.4135 1.341 0 2.844-0.3534 4.056-1.5501 0.415-0.4152 0.609-0.5544 0.701-0.6194 0.071-0.0507 0.079-0.0565 0.079-0.1127 0-0.0858-0.084-0.1509-0.197-0.2384-0.231-0.1794-0.583-0.453-0.583-1.1923v-7.385c0-0.6455 2.711 0.3892 2.711 0.3892v3.8402zm-63.532-4.1087c3.4706-1.1855 7.0687 0.8374 8.0364 4.5174 0.967 3.6804-2.4626 7.6258-5.9332 8.812-3.4703 1.1867-5.6675-0.8355-6.6352-4.5171-0.967-3.6801 1.0617-7.6249 4.532-8.8123zm-2.0927 7.997c0.5919 2.2512 1.935 3.4883 4.0578 2.7621 2.1215-0.7256 4.2194-3.137 3.6279-5.3882-0.5915-2.2513-2.7918-3.4874-4.9143-2.7621-2.1218 0.725-3.3626 3.1376-2.7714 5.3882zm-8.5722-2.1513c2.2584 0.2874 4.9558 0.6307 5.1116 3.1174 0.1406 2.2525-1.3392 4.7061-5.9105 4.7058-0.1111 0-0.2207-0.0031-0.3296-0.0087-1.9974-0.0885-3.7108-0.919-4.3315-2.0536-0.684-1.25 1.6976-2.0579 1.6976-2.0579 0.7386 0.8159 1.6051 1.3944 3.2394 1.3944 1.7823 0 2.3694-0.5695 2.6543-1.2299 7e-4 -3e-4 0.0013-6e-4 0.0013-9e-4 0.2531-0.1847 0.6984-0.0457 1.0034 0.0494 0.1583 0.0494 0.2789 0.087 0.3149 0.0614 0.1049-0.0745 0.0857-0.8349-1.9735-1.1666-0.3464-0.0558-0.7536-0.1-1.1955-0.1479-2.3469-0.2546-5.6704-0.6152-6.042-3.3792-0.4277-3.1838 2.583-5.4791 5.9943-5.4791 0.8348 0 2.021 0.3082 2.4241 0.544 1.3736 0.8038-0.3302 2.6687-0.3302 2.6687s-0.9704-0.4866-2.3322-0.4866c-2.4794 0-3.3006 1.2693-3.0582 2.2999 0.1891 0.8038 1.5239 0.9736 3.0623 1.1694zm94.338 3.1174c-0.155-2.4867-2.853-2.83-5.111-3.1174-1.539-0.1958-2.873-0.3656-3.062-1.1694-0.243-1.0306 0.579-2.2999 3.058-2.2999 1.361 0 2.332 0.4866 2.332 0.4866s1.704-1.8649 0.33-2.6687c-0.403-0.2358-1.589-0.544-2.424-0.544-3.411 0-6.422 2.2953-5.994 5.4791 0.371 2.7639 3.695 3.1246 6.042 3.3792 0.442 0.0479 0.849 0.0921 1.195 0.1479 2.06 0.3317 2.079 1.0921 1.973 1.1666-0.035 0.0256-0.155-0.0119-0.313-0.0612-0.305-0.0952-0.751-0.2344-1.004-0.0496l-2e-3 9e-4c-0.285 0.6604-0.872 1.2299-2.654 1.2299-1.634 0-2.501-0.5785-3.239-1.3944 0 0-2.382 0.8079-1.698 2.0579 0.62 1.1346 2.334 1.9651 4.332 2.0536 0.108 0.0056 0.218 0.0087 0.329 0.0087 4.571 3e-4 6.051-2.4533 5.91-4.7058z" clip-rule="evenodd" fill="#793FBC" fill-rule="evenodd"/>
</svg>
